<svg style="display:none">
  <symbol id="Logo" xmlns="http://www.w3.org/2000/svg" version="1.1" viewBox="0 0 1600 432">
    <path transform="translate(0)" d="m0 0h1600v432h-1600v-432z" fill="#FDFDFD"/>
    <path transform="translate(54.5 64.6)" d="m0 0c0.75-0.01 1.49-0.01 2.26-0.02 2.46-0.01 4.92 0 7.37 0.01 1.72 0 3.43-0.01 5.14-0.01 3.58 0 7.17 0 10.8 0.02 4.59 0.01 9.19 0 13.8-0.01 3.53-0.01 7.07-0.01 10.6 0 1.69 0 3.39 0 5.08-0.01 2.37-0.01 4.73 0 7.1 0.02 0.7-0.01 1.4-0.01 2.12-0.02 3.02 0.04 5.11 0.28 7.78 1.73 2.07 2.23 1.96 4.03 1.89 6.99-0.04 0.73-0.07 1.46-0.11 2.21-0.04 1.64-0.08 3.27-0.11 4.9-0.03 1.34-0.03 1.34-0.07 2.71-0.07 5.26 0.06 10.5 0.18 15.8 0.05 2.27 0.09 4.53 0.14 6.8 0.04 2.3 0.09 4.61 0.14 6.91 0.05 2.38 0.1 4.75 0.15 7.13 0.11 5.75 0.23 11.5 0.35 17.2h2c0.29-0.74 0.57-1.48 0.87-2.24 22-56.6 22-56.6 27.1-61.8 5.3 0.39 9.4 1.92 14.1 4.31 10.7 5.26 21.8 9.5 32.8 13.9 25.8 10.2 25.8 10.2 30.1 14.8-1.39 3.53-2.86 7.03-4.36 10.5-4.31 10.1-8.37 20.3-12.4 30.5-0.42 1.06-0.42 1.06-0.85 2.15-3.25 8.24-6.43 16.5-9.4 24.8 1.73-1.73 3.35-3.56 5-5.36 12.3-13.3 12.3-13.3 18.5-18.6 3.56-3.11 6.92-6.38 10.2-9.73 0.49-0.5 0.99-1.01 1.5-1.52 2.06-2.09 4.12-4.19 6.18-6.28 1.52-1.55 3.04-3.1 4.57-4.64 0.89-0.91 1.79-1.83 2.72-2.77 2.32-2.11 2.32-2.11 5.32-3.11 13 12.8 13 12.8 18.5 19.4 1.54 1.69 3.16 3.1 4.94 4.52 0.84 0.7 1.69 1.41 2.56 2.13v2c0.55 0.22 1.1 0.45 1.67 0.68 3.06 1.73 5.18 3.94 7.64 6.44 0.73 0.74 0.73 0.74 1.48 1.49 3.33 3.41 6.51 6.91 9.58 10.6 1.73 1.94 3.59 3.64 5.51 5.39 2.28 2.32 3.28 3.77 4.68 6.81-0.67 4.36-1.52 4.8-4.81 7.57-4.12 3.58-8.06 7.27-11.9 11.2-0.53 0.53-1.06 1.06-1.6 1.61-1.62 1.63-3.24 3.27-4.86 4.91-12.8 13-12.8 13-18.7 17.9-2.51 2.25-4.62 4.81-6.81 7.37-4.35 4.98-9.06 9.61-14.1 13.9-5.9 5.15-11.4 10.8-16.9 16.3-2.03 2.04-4.06 4.07-6.08 6.1-4.31 4.32-8.61 8.63-12.9 13-5 5.02-9.99 10-15 15-1.99 2-3.97 4-5.96 6-1.23 1.23-2.46 2.46-3.68 3.69-0.55 0.55-1.09 1.1-1.66 1.67-3.38 3.38-6.9 6.44-10.6 9.48-1.91 2.09-3.69 4.24-5.48 6.42-0.5 0.52-1 1.04-1.52 1.58h-2c-0.39 0.88-0.39 0.88-0.79 1.77-1.3 2.39-2.7 3.96-4.62 5.87l-2.06 2.06c-0.71 0.69-1.42 1.39-2.15 2.11-0.69 0.69-1.38 1.37-2.09 2.08-3.33 3.31-6.71 6.51-10.3 9.58-4.47 3.86-8.66 7.98-12.8 12.2-0.75 0.74-1.5 1.48-2.27 2.24-0.72 0.72-1.45 1.44-2.19 2.18-0.97 0.96-0.97 0.96-1.95 1.94-3.06 3.48-5.07 6.69-5.47 11.3-0.1 1.22-0.2 2.43-0.31 3.69-0.69 0.1-1.37 0.2-2.08 0.3-2.94 0.62-5.28 1.25-7.92 2.7-1.38 2.58-1.96 4.85-2.5 7.72-0.5 2.28-0.5 2.28-2.5 4.28-2.6 0.19-2.6 0.19-5.62 0.12-1.01-0.01-2.01-0.03-3.04-0.05-1.16-0.04-1.16-0.04-2.34-0.07l-2 5c-4.2 1.03-6.45 1.22-10.5-0.44-5.31-3.46-9.72-8.23-11.7-14.2-0.94-1.94-0.94-1.94-2.77-3.32-5.17-1.16-10.4-1.22-15.6-1.31-2.17-0.07-4.33-0.15-6.5-0.23-1.95-0.07-3.91-0.12-5.87-0.16-3.01-0.3-3.01-0.3-5.01-2.3-0.38-2.5-0.38-2.5-0.56-5.44-0.21-3.14-0.44-5.56-1.44-8.56-2.5-1.22-2.5-1.22-5-2 0.48-4.32 1.75-6.17 5-9-0.95-2.45-1.87-4.78-3.19-7.06-0.81-1.94-0.81-1.94-0.68-4.07 1.14-2.45 2.47-2.78 4.87-3.87 0.01-1.31 0.01-2.62 0.01-3.97 0.1-31.2 0.21-62.3 0.32-93.5 0.02-3.84 0.03-7.68 0.04-11.5 0.01-0.76 0.01-1.53 0.01-2.32 0.05-12.4 0.09-24.7 0.13-37.1 0.04-12.7 0.08-25.4 0.13-38.1 0.03-7.82 0.05-15.6 0.08-23.5 0.01-6.01 0.04-12 0.06-18 0.01-2.46 0.02-4.91 0.02-7.37 0.02-7.22 0.07-14.4 0.2-21.7 0.02-0.82 0.03-1.64 0.04-2.48 0.05-2.14 0.13-4.28 0.22-6.42 0.05-1.12 0.09-2.25 0.14-3.42 0.6-2.68 0.6-2.68 2.44-4.54 3.14-1.66 6.15-1.56 9.62-1.53z"/>
    <path transform="translate(1117 130)" d="m0 0c1.65-0.01 1.65-0.01 3.34-0.03h3.63c1.24 0 2.47 0 3.74-0.01 3.3-0.01 6.59 0 9.88 0 3.31 0 6.62-0.03 9.92-0.05h7.65c1.18-0.01 2.36-0.02 3.57-0.03 13.6 0.08 25.4 2.97 35.6 12.3 7.84 8.2 13.6 18.1 13.6 29.6 0.01 1.65 0.01 1.65 0.02 3.33v3.63c0 1.27 0 2.54 0.01 3.84 0.01 3.48 0.01 6.96 0.01 10.4v6.53c0.01 7.61 0.02 15.2 0.02 22.8 0 7.06 0.01 14.1 0.02 21.2 0.02 6.08 0.02 12.2 0.02 18.2 0 3.62 0 7.25 0.01 10.9 0.01 4.06 0.01 8.11 0 12.2 0.01 1.19 0.02 2.37 0.02 3.59-0.05 14.4-1.78 26.4-12.1 37.1-12.5 11.8-24.7 12.8-41.3 13.3-1 0.04-2 0.07-3.04 0.11-0.91 0.03-1.82 0.06-2.77 0.1-2.09-0.04-2.09-0.04-3.11 1.18-0.12 1.94-0.18 3.87-0.2 5.81-0.02 1.24-0.04 2.48-0.06 3.76-0.02 1.37-0.04 2.73-0.06 4.09l-0.06 4.17-0.15 11c-0.05 3.74-0.11 7.47-0.16 11.2-0.11 7.33-0.21 14.7-0.31 22-4.82 0.03-9.65 0.05-14.5 0.06-1.64 0-3.28 0.01-4.93 0.02-2.35 0.01-4.71 0.02-7.06 0.02-0.74 0.01-1.48 0.01-2.24 0.02-1.77 0-3.53-0.05-5.3-0.12-1.57-1.57-1.13-3.13-1.13-5.31 0-0.94 0-1.88-0.01-2.85 0-1.04 0.01-2.08 0.01-3.15-0.01-1.1-0.01-2.2-0.01-3.33-0.01-3.71-0.01-7.42 0-11.1-0.01-2.65-0.01-5.29-0.01-7.94-0.01-6.46-0.02-12.9-0.02-19.4v-15.8c-0.01-14.9-0.02-29.7-0.01-44.6v-2.43-2.43c0-13-0.01-26.1-0.03-39.1-0.01-13.4-0.02-26.7-0.02-40.1 0-7.5 0-15-0.01-22.5-0.01-6.39-0.01-12.8-0.01-19.2 0.01-3.26 0.01-6.52 0-9.79-0.01-3.53 0-7.06 0-10.6 0-1.04-0.01-2.08-0.01-3.15 0-0.94 0.01-1.88 0.01-2.85v-2.47c0.58-4.56 3.7-4.23 7.52-4.25z"/>
    <path transform="translate(701,138)" d="m0 0c12.9 9.79 19.2 21.2 22 37 0.09 1.73 0.13 3.46 0.14 5.19 0.01 1.02 0.01 2.05 0.02 3.1v3.38c0.01 1.77 0.01 1.77 0.02 3.58 0.01 3.23 0.02 6.47 0.02 9.7 0 2.02 0.01 4.05 0.01 6.08 0.02 6.35 0.03 12.7 0.03 19 0 7.31 0.02 14.6 0.05 21.9 0.02 5.67 0.03 11.3 0.03 17 0 3.38 0.01 6.75 0.03 10.1 0.01 3.78 0.01 7.55 0.01 11.3 0.01 1.1 0.01 2.19 0.02 3.33-0.08 15.4-4.44 27.4-15.2 38.4-10.4 9.77-23.7 12.3-37.5 12.1-14.3-0.95-24.8-8.26-34.7-18.2-13.4-15.4-11.3-37.2-11.3-56.2v-7.32c0-5.09 0-10.2 0.01-15.3 0.01-6.5 0-13-0.01-19.5-0.01-5.03 0-10.1 0-15.1v-7.19c-0.01-3.36 0-6.71 0.01-10.1 0-0.97-0.01-1.95-0.01-2.95 0.06-9.93 1.12-19.6 5.77-28.5 0.35-0.68 0.69-1.36 1.05-2.05 7.09-13.1 19.2-21.6 33.3-26 12.4-2.81 25.6 0.38 36.2 7.19z"/>
    <path transform="translate(866 75.7)" d="m0 0c1.03 0.01 1.03 0.01 2.08 0.02h2.14c1.49 0.01 2.98 0.01 4.47 0.03 2.29 0.01 4.58 0.02 6.86 0.02 1.45 0 2.9 0.01 4.34 0.01 1.04 0.01 1.04 0.01 2.09 0.01 4.82 0.05 4.82 0.05 5.94 1.16 0.12 2.44 0.18 4.85 0.19 7.29 0.01 0.76 0.02 1.52 0.02 2.31 0.02 1.66 0.04 3.32 0.05 4.99 0.02 2.63 0.05 5.26 0.08 7.89 0.06 5.59 0.11 11.2 0.16 16.8 0.06 6.47 0.12 12.9 0.19 19.4 0.03 2.6 0.05 5.19 0.07 7.78 0.02 1.59 0.03 3.18 0.05 4.78 0.01 1.08 0.01 1.08 0.01 2.18 0.05 3.66 0.32 7.06 1.18 10.6 4.49-1.5 6.35-5.07 8.75-8.87 0.88-1.36 1.76-2.71 2.64-4.07 0.44-0.68 0.87-1.36 1.32-2.06 1.91-2.95 3.85-5.88 5.79-8.81 0.63-0.96 1.26-1.91 1.91-2.89 1.59-2.3 1.59-2.3 3.59-4.3 2.77-0.26 5.44-0.4 8.22-0.45 0.81-0.02 1.63-0.04 2.46-0.06 1.73-0.05 3.45-0.09 5.17-0.12 2.64-0.06 5.28-0.13 7.92-0.2 1.67-0.04 3.34-0.08 5.01-0.12 0.79-0.02 1.59-0.04 2.4-0.06 5.59-0.1 5.59-0.1 7.82 1.01-0.55 3.64-1.38 5.96-3.59 8.9-0.8 1.08-0.8 1.08-1.61 2.18-0.58 0.76-1.15 1.52-1.74 2.3-1.19 1.61-2.37 3.22-3.56 4.83-0.59 0.81-1.18 1.61-1.79 2.44-5.91 8.14-11.4 16.6-16.5 25.3-1.25 2.05-1.25 2.05-2.87 3.89-1.59 2.04-1.59 2.04-1.34 4.36 0.19 0.78 0.39 1.56 0.59 2.37 0.21 0.88 0.42 1.77 0.64 2.68 0.36 1.36 0.36 1.36 0.73 2.75 0.22 0.86 0.44 1.72 0.67 2.61 0.73 2.77 1.5 5.52 2.28 8.28 0.29 1.03 0.58 2.06 0.88 3.12 0.94 3.37 1.9 6.75 2.86 10.1 0.33 1.16 0.66 2.33 1 3.53 5.03 17.8 10.4 35.4 15.9 53 4.65 14.7 9.09 29.4 13.3 44.2 0.26 0.92 0.52 1.83 0.79 2.77 0.73 2.54 1.45 5.08 2.17 7.63 0.32 1.13 0.32 1.13 0.65 2.27 0.83 2.94 1.45 5.46 1.45 8.52-4.81 0.03-9.61 0.05-14.4 0.06-1.63 0-3.27 0.01-4.9 0.02-2.35 0.01-4.7 0.02-7.05 0.02-1.1 0.01-1.1 0.01-2.22 0.02-5.18 0-5.18 0-7.41-1.12-0.76-2.1-0.76-2.1-1.47-4.91-0.28-1.04-0.55-2.08-0.83-3.16-0.29-1.13-0.58-2.27-0.88-3.44-0.62-2.4-1.25-4.8-1.88-7.19-0.33-1.22-0.65-2.45-0.98-3.71-1.43-5.33-2.95-10.6-4.5-15.9-0.45-1.52-0.45-1.52-0.9-3.06-0.6-2.08-1.21-4.15-1.81-6.23-4.25-14.5-8.44-29-12.3-43.6-0.27-1.05-0.55-2.1-0.83-3.18-1.3-4.97-2.59-9.95-3.86-14.9-0.46-1.78-0.92-3.55-1.38-5.32-0.2-0.8-0.4-1.61-0.6-2.43-0.99-3.79-1.73-6.37-4.79-8.88h-2l-1 127c-10.9 0.33-21.8 0.66-33 1-2.42-2.42-2.25-2.98-2.25-6.28-0.01-0.91-0.01-1.81-0.02-2.75 0.01-1 0.01-2 0.02-3.03-0.01-1.06-0.01-2.11-0.01-3.2-0.01-3.57 0-7.14 0-10.7 0-2.55 0-5.1-0.01-7.64-0.01-6.22-0.01-12.4 0-18.7v-15.2-2.18-4.38c-0.01-13.7 0-27.4 0.01-41.1 0.01-11.8 0.01-23.5 0-35.3-0.01-13.6-0.02-27.3-0.01-40.9v-4.36-2.17c0.01-5.05 0-10.1 0-15.1-0.01-6.79 0-13.6 0.01-20.4 0-2.5 0-5-0.01-7.5 0-3.39 0.01-6.79 0.02-10.2-0.01-1.5-0.01-1.5-0.02-3.03 0.01-0.91 0.01-1.81 0.02-2.74v-2.38c0.58-4.42 3.58-4.14 7.33-4.16z"/>
    <path transform="translate(481 78.8)" d="m0 0c11 9.14 18.8 21.9 20.5 36.2 0.12 3.51 0.11 7.02 0.09 10.5v3c-0.01 3.14-0.02 6.27-0.03 9.41-0.01 2.14-0.01 4.27-0.01 6.41-0.02 5.22-0.03 10.4-0.05 15.6-4.51 0.05-9.01 0.09-13.5 0.11-1.53 0.01-3.06 0.03-4.59 0.04-2.21 0.03-4.41 0.04-6.61 0.05-0.68 0.01-1.37 0.02-2.07 0.03-3.65 0-5.09-0.14-8.22-2.23-0.25-2.82-0.3-5.43-0.23-8.26 0.01-0.82 0.02-1.65 0.03-2.49 0.03-2.65 0.08-5.29 0.13-7.93 0.05-2.63 0.1-5.25 0.13-7.88 0.02-1.63 0.05-3.27 0.09-4.9 0.08-6.18-0.4-11.5-4.53-16.4-3.93-3.28-5.25-4.21-10.5-4.12-4.48 0.71-6.97 2.64-10.1 5.93-6.74 11.2-5.32 27.5-4 40 1.4 5.51 4.42 9.66 8 14 0.72 1 1.44 2 2.18 3.04 2.2 3.04 4.49 6.01 6.82 8.96 5.79 7.36 11.3 14.8 16.5 22.6 3.63 5.4 7.3 10.6 11.6 15.5 4.21 4.88 7.86 10 11.4 15.4 0.77 1.16 0.77 1.16 1.56 2.34 3.5 5.31 6.18 9.75 6.2 16.3 0 0.98 0.01 1.97 0.01 2.98 0 1.05 0 2.1-0.01 3.19 0 1.09 0.01 2.19 0.01 3.32 0 2.32 0 4.64-0.01 6.96-0.01 3.52 0 7.04 0.01 10.6 0 2.27 0 4.53-0.01 6.79 0.01 1.04 0.01 2.08 0.01 3.15-0.09 15.1-2.91 28.7-13.6 40-10.3 9.4-21.1 13.6-34.9 13.5-1.02 0-2.03-0.01-3.07-0.01-14.4-0.35-25.9-6.24-35.9-16.6-9.17-10.9-12.1-23.7-12-37.5v-2.97c-0.01-2.06 0-4.11 0.01-6.17 0.01-3.16 0-6.32-0.02-9.47 0-2.01 0.01-4.01 0.01-6.01 0-0.95-0.01-1.89-0.01-2.87 0.01-0.87 0.01-1.74 0.02-2.64v-2.33c0.26-1.89 0.26-1.89 2.26-3.89 3.05-0.24 3.05-0.24 6.94-0.23h2.07c1.44 0.01 2.88 0.02 4.33 0.03 2.21 0.02 4.43 0.02 6.65 0.02 10.9 0.04 10.9 0.04 12 1.18 0.12 2.7 0.18 5.37 0.21 8.06 0.03 1.69 0.05 3.37 0.08 5.05 0.04 2.65 0.08 5.31 0.11 7.96-0.58 15.2-0.58 15.2 5.01 28.6 3.44 3.05 6.35 4.25 10.9 4.59 4.84-0.32 8-1.62 11.5-5 3.54-6.7 2.41-15.6 2.43-23.1 0.01-2.18 0.04-4.36 0.07-6.54 0.01-1.4 0.01-2.8 0.02-4.21 0-1.26 0.01-2.52 0.02-3.81-0.59-6.04-3.07-10.6-6.73-15.4-0.7-0.94-1.41-1.89-2.14-2.86-0.39-0.53-0.79-1.05-1.19-1.59-2.52-3.38-4.96-6.81-7.42-10.2-4.58-6.36-9.21-12.7-13.9-19-5.7-7.71-11.4-15.5-17-23.3-1.97-2.75-3.97-5.48-5.98-8.19-0.69-0.94-0.69-0.94-1.39-1.89-1.21-1.65-2.44-3.3-3.66-4.94-4.63-7.36-5.47-13.5-5.42-22 0-1.02-0.01-2.05-0.01-3.1 0-2.16 0-4.32 0.02-6.47 0.01-3.27 0-6.53-0.02-9.79-0.02-13.1 0.07-25.5 6.34-37.3 0.49-0.93 0.97-1.87 1.47-2.84 6.84-11.4 18-18.5 30.2-23 14.4-3.08 29-0.45 40.9 8.15z"/>
    <path transform="translate(51,140)" d="m0 0 1 2c1.68-0.25 1.68-0.25 3.4-0.51 4.78-0.59 9.45-0.54 14.3-0.4 1.36 0.03 1.36 0.03 2.75 0.06 1.91 0.05 3.83 0.1 5.74 0.15 2.88 0.07 5.76 0.14 8.64 0.21 5.4 0.13 10.8 0.3 16.2 0.49 0.79 0.03 1.58 0.05 2.39 0.08 2.12 0.07 4.24 0.17 6.36 0.27 1.17 0.05 2.34 0.11 3.54 0.16 0.9 0.16 1.79 0.32 2.71 0.49 2.4 3.61 2.22 5.12 2.14 9.4-0.01 0.64-0.02 1.29-0.03 1.95-0.04 2.13-0.09 4.25-0.13 6.38-0.03 1.48-0.05 2.95-0.08 4.43-0.07 3.88-0.14 7.76-0.23 11.6-0.08 3.96-0.15 7.92-0.22 11.9-0.14 7.77-0.29 15.5-0.45 23.3-3.25 1.08-5.27 0.75-8.6 0.28-4.69-0.54-9.41-0.52-14.1-0.6-1.65-0.03-1.65-0.03-3.33-0.06-3.48-0.06-6.97-0.12-10.4-0.18-2.37-0.05-4.74-0.09-7.12-0.13-5.79-0.11-11.6-0.21-17.4-0.31v2c0.63 0 1.26 0 1.91-0.01 6.61-0.02 13.2-0.03 19.8-0.04l7.38-0.03c3.55-0.01 7.1-0.01 10.6-0.02 1.09 0 2.18-0.01 3.3-0.01 6.06 0 12 0.13 18 1.11 1.41 2.81 1.12 5.14 1.11 8.29v1.95c0 2.13 0 4.26-0.01 6.39 0 1.48-0.01 2.96-0.01 4.43 0 3.89-0.01 7.78-0.02 11.7-0.01 3.97-0.02 7.94-0.02 11.9-0.01 7.78-0.03 15.6-0.05 23.4-0.99 0.33-1.98 0.66-3 1l-1-1c-1.35-0.09-2.71-0.12-4.06-0.11h-2.61c-1.4 0-1.4 0-2.83 0.01-1.43 0-1.43 0-2.89 0.01-3.06 0-6.12 0.01-9.17 0.03-2.07 0-4.14 0.01-6.2 0.01-5.08 0.01-10.2 0.03-15.2 0.05v-2h-9v2c12.4 1.35 24.8 1.34 37.2 1.55 2.9 0.05 5.81 0.11 8.71 0.17 0.9 0.01 1.79 0.03 2.72 0.04 6.25 0.13 6.25 0.13 7.36 1.24 0.1 2.43 0.14 4.83 0.13 7.27v2.3c0.01 2.54 0.01 5.07 0 7.61 0 1.76 0 3.52 0.01 5.29 0 3.71 0 7.42-0.01 11.1-0.01 4.72 0 9.45 0 14.2 0.01 3.65 0.01 7.31 0 11 0 1.74 0 3.48 0.01 5.22 0.01 9.4-0.12 18.7-1.14 28-6.95 0.03-13.9 0.04-20.9 0.05-2.35 0.01-4.71 0.02-7.07 0.03-22.6 0.08-22.6 0.08-33.2-0.52-0.7-0.04-1.4-0.08-2.12-0.12-4.65-0.31-4.65-0.31-5.78-1.44-0.1-2.98-0.13-5.93-0.13-8.91v-2.86c-0.01-3.2 0-6.4 0-9.59v-6.85c-0.01-6.21-0.01-12.4 0-18.6 0-6.49 0-13-0.01-19.5 0-11.6 0.01-23.2 0.01-34.8 0.01-10.5 0-21 0-31.6-0.01-12.2-0.01-24.4 0-36.6 0-6.47 0-12.9-0.01-19.4 0-6.08 0-12.2 0.01-18.2v-6.71c-0.01-3.05 0-6.09 0-9.14v-2.71c0.01-3.39 0.05-6.2 1.13-9.45z" fill="#FDFDFD"/>
    <path transform="translate(1020,76)" d="m0 0c2.96 6.44 4.44 13.3 6.13 20.2 4.25 17.2 9.28 34 14.9 50.8h2c0.1-1.03 0.2-2.06 0.31-3.12 0.81-6.42 2.32-12.7 3.75-19 0.15-0.67 0.3-1.34 0.46-2.02 2.41-10.6 5.02-21.2 7.79-31.7 0.17-0.66 0.34-1.31 0.52-1.99 0.48-1.84 0.98-3.69 1.47-5.53 0.28-1.05 0.56-2.1 0.85-3.18 0.85-2.49 0.85-2.49 2.85-4.49 2.87-0.24 2.87-0.24 6.5-0.23 1.3 0 2.6 0 3.94 0.01 0.67 0 1.35 0.01 2.05 0.01 2.07 0.02 4.14 0.02 6.21 0.02 10.2 0.05 10.2 0.05 11.3 1.19-0.2 5.1-1.41 9.32-3.13 14.1-3.64 10.6-6.12 21.4-8.77 32.3-1.54 6.27-3.09 12.5-4.65 18.8-0.45 1.82-0.45 1.82-0.92 3.68-3.73 15-7.51 30-12.3 44.7-0.29 0.87-0.57 1.74-0.87 2.63-0.51 1.55-1.04 3.09-1.6 4.63-2.99 8.81-2.04 16.6 0.84 25.3 0.27 0.86 0.54 1.72 0.82 2.6 0.86 2.74 1.74 5.48 2.62 8.21 7.89 24.8 14.3 50 20 75.4 1.66 7.34 3.71 14.4 6.16 21.6 0.83 2.91 0.95 5.08 0.88 8.07-4.08 0.07-8.15 0.13-12.2 0.16-1.38 0.02-2.77 0.04-4.15 0.07-2 0.03-3.99 0.05-5.98 0.06-1.2 0.02-2.4 0.03-3.64 0.05-3-0.34-3-0.34-4.57-1.47-1.96-2.56-2.47-4.96-3.24-8.09-0.16-0.62-0.31-1.24-0.47-1.89-0.52-2.06-1.01-4.12-1.51-6.18-0.36-1.43-0.71-2.86-1.07-4.29-0.93-3.77-1.85-7.53-2.76-11.3-0.94-3.85-1.89-7.69-2.84-11.5-1.86-7.53-3.7-15.1-5.54-22.6h-2c-5.65 17-10.1 34.2-14.1 51.6-0.18 0.8-0.37 1.61-0.56 2.44-0.35 1.52-0.7 3.05-1.04 4.57-1.17 5.14-1.17 5.14-2.28 7.36-20.5 1.19-20.5 1.19-30 1-1.27-3.81-0.38-6.43 0.59-10.2 0.18-0.72 0.36-1.44 0.54-2.18 0.6-2.36 1.2-4.72 1.81-7.08 0.42-1.64 0.83-3.29 1.25-4.94 2.74-10.8 5.68-21.4 8.78-32.1 3.93-13.5 7.5-27.1 11-40.8 0.87-3.33 1.75-6.66 2.63-9.99 6.2-23.6 1.6-41.9-4.83-65.1-0.59-2.15-1.17-4.3-1.76-6.45-3.34-12.2-6.77-24.4-10.3-36.5-2.34-8.15-4.56-16.3-6.71-24.5-0.36-1.38-0.73-2.75-1.09-4.13-0.5-1.9-1-3.8-1.49-5.71-0.29-1.09-0.57-2.18-0.86-3.3-0.62-3.12-0.79-5.9-0.61-9.08 2.61-2.61 9.85-1.49 13.4-1.62 1.16-0.06 2.32-0.11 3.52-0.16 1.67-0.07 1.67-0.07 3.37-0.13 1.03-0.04 2.05-0.09 3.11-0.13 2.62 0.04 2.62 0.04 5.62 1.04z"/>
    <path transform="translate(1307,141)" d="m0 0c1.02 0.88 1.02 0.88 2.06 1.78 8.93 8.25 13.4 18.1 14.1 30.2 0.06 3.21 0.06 6.42 0.03 9.63-0.01 1.16-0.01 2.32-0.01 3.52-0.01 3.68-0.04 7.36-0.07 11-0.01 2.51-0.01 5.02-0.02 7.53-0.02 6.12-0.06 12.2-0.1 18.4-1.12 0.03-1.12 0.03-2.27 0.07-7.05 0.21-14.1 0.44-21.2 0.66-3.62 0.12-7.25 0.23-10.9 0.34-3.49 0.11-6.99 0.22-10.5 0.33l-5.97 0.18c-1.8 0.06-1.8 0.06-3.64 0.12-1.59 0.05-1.59 0.05-3.22 0.1-2.35-0.06-2.35-0.06-3.4 1.2-0.1 1.89-0.14 3.77-0.15 5.66 0 1.21-0.01 2.43-0.01 3.68-0.01 1.33-0.01 2.67-0.01 4 0 1.37 0 2.74-0.01 4.1 0 2.88-0.01 5.76-0.01 8.63 0 3.66-0.01 7.33-0.03 11-0.01 2.83-0.01 5.66-0.01 8.49 0 2-0.01 4-0.02 6-0.39 11.4-0.39 11.4 3.91 21.4 4.89 2.65 8.73 4.06 14.3 4.06 4.06-1.5 5.59-2.38 8-6 0.91-3.5 1.15-6.85 1.25-10.4 0.03-1.01 0.06-2.02 0.1-3.07 0.06-2.12 0.11-4.25 0.17-6.37 0.03-1.01 0.07-2.02 0.1-3.06 0.04-1.38 0.04-1.38 0.08-2.79 0.3-2.26 0.3-2.26 2.3-4.26 2.97-0.24 2.97-0.24 6.72-0.23h2c1.4 0 2.8 0.01 4.19 0.02 2.15 0.02 4.29 0.02 6.44 0.02 10.5 0.04 10.5 0.04 11.6 1.19 1.19 18.2 2.36 38.9-10.2 53.6-8.74 9.23-17.9 15.2-30.8 15.7-1.79 0.02-3.57 0.02-5.36 0.01-0.88 0.02-1.76 0.03-2.67 0.05-13.2 0.01-23.8-5.21-33.3-14.3-8.48-9-12.6-19.2-12.8-31.6-0.02-1.07-0.04-2.13-0.06-3.22-0.01-1.14-0.03-2.28-0.05-3.45-0.02-1.2-0.04-2.39-0.06-3.62-0.07-3.88-0.12-7.76-0.18-11.6-0.02-1.33-0.04-2.67-0.07-4-0.61-39-0.61-39-0.37-57.6 0.01-0.76 0.02-1.52 0.03-2.31 0.05-5.15 0.13-10.3 0.23-15.4 0.04-1.68 0.06-3.36 0.09-5.04 0.24-17 3.49-30.7 15.6-43.2 6.7-5.46 13.5-9.34 22-11 1.05-0.21 1.05-0.21 2.13-0.43 14.5-2.22 28.8 0.63 39.9 10.4z"/>
    <path transform="translate(821 136)" d="m0 0c2.54 2.19 4.78 4.43 7 6.95 0.58 0.65 1.16 1.3 1.76 1.97 10.7 13.1 10.4 27.1 10.3 43.2 0 1.45-0.01 2.9-0.01 4.34-0.01 3.51-0.03 7.02-0.05 10.5-4.68 0.02-9.36 0.04-14 0.05-1.6 0.01-3.19 0.01-4.79 0.02-2.28 0.01-4.57 0.02-6.85 0.02-0.72 0.01-1.44 0.01-2.18 0.02-1.71 0-3.43-0.05-5.14-0.11-1.88-1.89-1.18-5.16-1.21-7.67-0.03-1.38-0.06-2.77-0.09-4.15-0.04-2.18-0.07-4.36-0.1-6.54-0.03-2.11-0.08-4.21-0.12-6.31-0.03-1.89-0.03-1.89-0.06-3.82-0.45-3.8-1.45-6.26-3.42-9.51-1.71-1.04-1.71-1.04-4-1-1.22-0.09-2.43-0.17-3.69-0.25-4.61 0.08-9.36 0.77-13.3 3.25-3.9 5.67-3.43 11.5-3.4 18.1-0.01 1.82-0.01 1.82-0.02 3.68-0.02 3.31-0.02 6.63-0.02 9.94 0.01 2.77 0 5.55 0 8.32-0.02 6.53-0.02 13.1-0.01 19.6 0.02 6.74 0 13.5-0.03 20.2-0.02 5.79-0.02 11.6-0.02 17.4 0.01 3.46 0 6.92-0.01 10.4-0.02 3.85-0.01 7.7 0.01 11.6-0.02 1.72-0.02 1.72-0.03 3.47 0.01 1.05 0.02 2.1 0.03 3.18v2.76c0.66 3.22 1.97 4.39 4.5 6.43 7.04 2.65 13 2.76 20 0l2-1c0.02-1.21 0.04-2.41 0.06-3.64 0.08-4.45 0.16-8.9 0.26-13.3 0.04-1.93 0.07-3.86 0.1-5.78 0.05-2.77 0.11-5.53 0.17-8.3 0.01-0.86 0.02-1.73 0.03-2.62 0.15-6.1 0.15-6.1 2.38-8.32 2.44-0.18 4.76-0.24 7.2-0.2 1.06 0 1.06 0 2.14 0.01 2.26 0.01 4.52 0.03 6.78 0.06 1.54 0.01 3.07 0.02 4.6 0.03 3.76 0.02 7.52 0.05 11.3 0.1 1.14 2.28 1.12 3.52 1.1 6.06 0 0.83-0.01 1.67-0.01 2.54-0.05 3.88-0.1 7.75-0.17 11.6-0.03 2.03-0.05 4.06-0.06 6.1-0.09 16.8-1.51 30-13.9 42.7-10.6 9.55-23.1 11.5-37 11.3-11.4-0.88-21.2-3.66-30-11.3-1.08-0.9-1.08-0.9-2.17-1.81-9.14-8.27-13.3-19.3-13.9-31.4-0.19-6.49-0.14-13-0.12-19.5v-6.4c0-4.47 0.01-8.93 0.02-13.4 0.02-5.64 0.02-11.3 0.02-16.9 0-13.5 0.06-27.1 0.19-40.6 0.01-0.84 0.01-1.68 0.02-2.54 0.05-4.96 0.13-9.92 0.24-14.9 0.02-1.14 0.03-2.27 0.04-3.44 0.39-13 4.86-24.9 13.9-34.4 16.9-15.6 43.9-20.3 63.8-6.66z"/>
    <path transform="translate(168,84)" d="m0 0c2.25 0.83 4.47 1.71 6.69 2.62 1.34 0.55 2.68 1.1 4.03 1.65 0.7 0.28 1.4 0.57 2.12 0.86 3.6 1.45 7.23 2.85 10.8 4.25 2.28 0.88 4.57 1.77 6.86 2.66 1.71 0.67 3.42 1.34 5.14 2 2.73 1.06 5.46 2.14 8.19 3.21 0.85 0.33 1.7 0.66 2.57 1 3.9 1.54 7.37 2.93 10.6 5.75-0.57 5.14-1.77 9.63-3.66 14.4-0.27 0.7-0.53 1.39-0.81 2.11-0.85 2.23-1.72 4.46-2.59 6.69-0.6 1.53-1.19 3.06-1.79 4.6-1.17 3.01-2.35 6.02-3.53 9.03-1.38 3.51-2.74 7.03-4.08 10.6l-2.04 5.13c-0.29 0.77-0.58 1.53-0.88 2.32-1.19 2.93-2 4.78-4.83 6.32-4.1-0.3-7.28-2.13-10.8-4.01-8.41-4.22-17-7.57-25.9-10.7-1.22-0.43-2.45-0.87-3.71-1.31-6.6-2.34-6.6-2.34-13.4-4.19 2.54 1.69 4.51 2.68 7.32 3.73 0.86 0.33 1.72 0.65 2.6 0.99 0.91 0.34 1.83 0.68 2.77 1.03s1.88 0.71 2.85 1.08c5.01 1.88 10 3.75 15 5.62 1.93 0.72 3.86 1.45 5.79 2.18 2.41 0.91 4.82 1.8 7.24 2.67 1.09 0.42 2.19 0.83 3.32 1.26 0.96 0.35 1.91 0.71 2.9 1.07 2.16 1.37 2.16 1.37 2.92 3.64 0.29 3.24-0.31 4.78-1.68 7.7-0.45 0.97-0.89 1.94-1.35 2.94-0.49 1.04-0.98 2.08-1.48 3.15-4.9 10.7-9.33 21.5-13.5 32.6-2.3 5.97-4.72 11.7-7.71 17.4-6.44-2.48-6.44-2.48-13-5v-2c-1.22-0.39-2.43-0.78-3.69-1.19-5.24-1.73-10.4-3.77-15.5-5.82-2.79-1.16-2.79-1.16-5.82-0.99 0.67 0.28 1.35 0.55 2.04 0.84 3.12 1.28 6.23 2.56 9.34 3.85 1.06 0.43 2.12 0.87 3.21 1.32 5.07 2.09 10.1 4.24 15.1 6.57 0.8 0.37 1.59 0.74 2.4 1.12 2.37 1.59 3.17 2.54 3.94 5.3-0.64 2.58-0.64 2.58-1.89 5.52-0.46 1.1-0.92 2.19-1.39 3.31-0.5 1.17-1.01 2.34-1.53 3.55-0.78 1.84-1.56 3.68-2.33 5.52-0.79 1.86-1.58 3.72-2.37 5.58-1.69 3.99-3.31 7.99-4.93 12-3.06 7.59-6.25 15.1-9.6 22.6-6.32 14.1-11.8 28.4-17 42.9h-2c-1.68-3.36-1.14-7.15-1.13-10.8 0-0.88 0-1.76-0.01-2.66 0-1.86 0.01-3.72 0.01-5.58 0-2.84 0-5.69-0.01-8.54 0-1.8 0.01-3.6 0.01-5.41 0-0.85-0.01-1.7-0.01-2.58 0.01-3.38 0.07-6.17 1.14-9.39l2-1c-0.49-0.35-0.98-0.71-1.48-1.07-2.26-2.86-1.89-5.13-1.88-8.74v-2.09c-0.01-2.27 0.01-4.54 0.03-6.82 0-1.58 0.01-3.16 0.01-4.74 0-3.31 0.02-6.62 0.04-9.94 0.03-4.24 0.04-8.49 0.04-12.7 0.01-3.26 0.02-6.52 0.03-9.79 0-1.56 0.01-3.13 0.01-4.7 0.01-2.18 0.02-4.37 0.04-6.56 0.01-1.25 0.01-2.49 0.02-3.77 0.14-3.04 0.14-3.04 1.14-6.04l-1-2c-0.1-1.49-0.14-2.98-0.15-4.47 0-0.93-0.01-1.86-0.01-2.82-0.01-1.01-0.01-2.01-0.01-3.05s0-2.08-0.01-3.15c0-2.21-0.01-4.41-0.01-6.62 0-3.35-0.02-6.7-0.03-10-0.01-2.14-0.01-4.29-0.01-6.43-0.01-1-0.01-1.99-0.02-3.01 0.06-20.6 9.72-39.2 18-57.5 1.7-3.8 3.37-7.62 5.03-11.4 0.27-0.62 0.54-1.23 0.82-1.86 1.47-3.35 2.91-6.71 4.34-10.1 0.48-1.12 0.48-1.12 0.96-2.25 0.62-1.43 1.22-2.87 1.82-4.3 2.38-5.54 3.46-6.48 9.31-4.96z" fill="#FDFDFD"/>
    <path transform="translate(260,132)" d="m0 0c4.38 0.86 5.87 2.74 8.81 6.12 6.54 7.36 13.5 14.3 20.5 21.2 5.77 5.7 11.5 11.4 16.7 17.7 0.58 0.63 1.15 1.26 1.75 1.91 1.25 2.09 1.25 2.09 1.05 4.52-0.94 3.01-1.87 3.91-4.33 5.85-4.64 3.82-8.79 8-13 12.3-1.59 1.63-3.19 3.25-4.78 4.87-2.49 2.53-4.98 5.07-7.46 7.62-2.41 2.47-4.83 4.93-7.26 7.39-1.11 1.15-1.11 1.15-2.24 2.33-0.7 0.7-1.39 1.4-2.11 2.12-0.6 0.62-1.21 1.24-1.84 1.88-1.79 1.2-1.79 1.2-3.89 1.07-3.05-1.39-4.15-4.09-5.9-6.87-1.31-1.36-2.65-2.69-4-4-1.03-1.18-2.05-2.37-3.06-3.56-5.21-6-10.8-12.4-17.3-17.1-0.55-0.43-1.1-0.86-1.67-1.3v-2c-1.49-0.5-1.49-0.5-3-1-1.82-1.85-1.82-1.85-3.69-4.06-0.93-1.1-0.93-1.1-1.88-2.23-0.71-0.84-0.71-0.84-1.43-1.71 0 3.16 1.98 4.69 4 7l2 1v2c0.64 0.27 1.28 0.54 1.94 0.81 2.06 1.19 2.06 1.19 3.06 4.19 0.86 0.41 0.86 0.41 1.73 0.83 3.21 1.65 5.25 4.24 7.58 6.92 3.14 3.52 6.22 6.88 9.88 9.87 0.93 0.79 1.85 1.57 2.81 2.38v2h2c1.36 1.61 1.36 1.61 2.75 3.75 0.47 0.7 0.94 1.39 1.42 2.11 0.83 2.14 0.83 2.14 0.29 4.04-1.99 2.85-4.27 5.38-6.65 7.91-0.49 0.53-0.98 1.06-1.49 1.6-1.43 1.54-2.87 3.06-4.32 4.59-1.09 1.16-1.09 1.16-2.21 2.34-3.41 3.52-3.41 3.52-4.79 4.66h-2c-0.5 1.49-0.5 1.49-1 3-1.57 1.51-1.57 1.51-3.56 3.12-3.8 3.21-7.01 6.67-10.2 10.5-2.55 2.73-5.3 5.13-8.13 7.57-9 7.81-17.6 16-25.5 24.9-4.68 5.16-9.75 9.87-14.9 14.6-3.24 2.98-6.29 5.99-9.15 9.34-3.66 4.27-7.66 8.05-11.8 11.8-5.15 4.8-10.3 9.6-15.2 14.6-1.28 1.28-1.28 1.28-2.59 2.58-1.96 1.9-1.96 1.9-2.91 4.04l-2-1c0.56-4.07 1.46-7.52 3.08-11.3 0.43-1.01 0.86-2.02 1.31-3.06 0.47-1.08 0.94-2.16 1.42-3.27 0.49-1.15 0.98-2.29 1.48-3.46 1.57-3.65 3.14-7.28 4.71-10.9 2-4.64 4-9.29 6-13.9 0.75-1.73 0.75-1.73 1.51-3.51 6.17-14.4 12.1-28.9 17.8-43.5 0.36-0.92 0.73-1.84 1.1-2.79 0.67-1.69 1.33-3.38 1.99-5.07 3.14-7.96 3.14-7.96 5.55-11.2 3 0 3 0 4.61 1.46 0.78 0.95 0.78 0.95 1.58 1.92 0.53 0.62 1.06 1.25 1.6 1.89 1.21 1.73 1.21 1.73 1.21 3.73 0.87 0.39 0.87 0.39 1.77 0.78 2.41 1.32 4.05 2.77 5.98 4.72 0.61 0.61 1.23 1.22 1.86 1.84 1.39 1.66 1.39 1.66 1.39 3.66 0.64 0.27 1.28 0.54 1.94 0.81 2.06 1.19 2.06 1.19 3.06 4.19 2.34 1.48 2.34 1.48 5 2-1.56-1.73-3.12-3.46-4.69-5.19-0.87-0.96-1.74-1.92-2.63-2.92-2.5-2.7-5.06-5.3-7.68-7.89l-13-13c2.23-8.54 5.55-16.6 8.93-24.7 0.94-2.26 1.87-4.53 2.8-6.79 9.3-22.6 9.3-22.6 14.8-26.3 4.51-3.32 8.44-6.92 12.4-10.9l1.65-1.65c2.27-2.3 4.39-4.55 6.35-7.12 2.4-2.88 5.06-5.16 7.91-7.59 3.95-3.48 7.63-7.22 11.3-11 0.78-0.77 1.55-1.54 2.34-2.33 4.4-4.4 8.56-8.89 12.5-13.7z" fill="#FDFDFD"/>
    <path transform="translate(580,76)" d="m0 0c0.24 2.25 0.24 2.25 0.23 5.09v3.22c-0.01 1.15-0.02 2.3-0.03 3.48-0.01 1.17-0.01 2.35-0.01 3.56-0.01 3.76-0.04 7.52-0.07 11.3-0.01 2.55-0.01 5.09-0.02 7.64-0.02 6.25-0.06 12.5-0.1 18.7 1.13 0.04 1.13 0.04 2.28 0.08 3.39 0.11 6.77 0.23 10.2 0.36 1.77 0.06 1.77 0.06 3.59 0.12 1.68 0.06 1.68 0.06 3.4 0.12 1.05 0.04 2.09 0.08 3.16 0.11 2.41 0.21 2.41 0.21 3.41 1.21 0.02 2.52-0.03 5.02-0.12 7.54-0.04 1.13-0.04 1.13-0.07 2.28-0.08 2.41-0.16 4.83-0.25 7.24-0.05 1.64-0.1 3.27-0.16 4.9-0.13 4.02-0.26 8.03-0.4 12-0.69 0.03-1.38 0.05-2.1 0.08-3.11 0.11-6.22 0.23-9.34 0.36-1.09 0.04-2.17 0.08-3.3 0.12-1.03 0.04-2.07 0.08-3.13 0.12-0.96 0.04-1.92 0.08-2.91 0.11-2.19-0.03-2.19-0.03-3.22 1.21-0.1 1.48-0.14 2.97-0.15 4.45 0 0.96-0.01 1.92-0.02 2.91 0 1.07 0 2.13-0.01 3.23 0 1.11-0.01 2.23-0.02 3.37-0.02 3.71-0.03 7.42-0.04 11.1 0 1.26-0.01 2.53-0.01 3.83-0.02 6.01-0.03 12-0.04 18-0.01 6.93-0.04 13.8-0.08 20.8-0.03 6.01-0.04 12-0.05 18 0 2.55-0.01 5.1-0.03 7.64-0.03 3.58-0.03 7.16-0.02 10.7-0.02 1.56-0.02 1.56-0.04 3.16 0.05 7.61 1.12 15.7 6.16 21.7 3.94 3.74 8.28 5.27 13.4 7.02 1.5 3.01 1.13 5.78 1.13 9.12 0 0.71 0 1.41 0.01 2.13 0 1.49-0.01 2.98-0.01 4.46 0 2.28 0 4.56 0.01 6.84 0 1.44-0.01 2.88-0.01 4.33v3.99c-0.13 3.13-0.13 3.13-1.13 5.13-16.7-0.85-31.8-9.99-43-22-10.4-13.4-11.1-29.8-11.2-46.1-0.01-1.15-0.02-2.31-0.03-3.49-0.03-3.77-0.05-7.55-0.08-11.3l-0.06-7.89c-0.05-6.19-0.09-12.4-0.14-18.6-0.05-7.05-0.1-14.1-0.16-21.2-0.11-14.5-0.22-29-0.32-43.5-0.69 0.01-1.38 0.01-2.1 0.02-3.11 0.02-6.22 0.03-9.34 0.04-1.09 0.01-2.17 0.02-3.3 0.03-1.03 0-2.07 0-3.13 0.01-0.96 0-1.92 0.01-2.91 0.01-2.22-0.11-2.22-0.11-3.22-1.11-0.11-2.35-0.16-4.67-0.17-7.03 0-0.7 0-1.41-0.01-2.13 0-1.49-0.01-2.99-0.01-4.48 0-2.28-0.02-4.57-0.03-6.86-0.01-1.45-0.01-2.89-0.01-4.34-0.01-0.69-0.01-1.37-0.02-2.08 0.02-4.85 0.02-4.85 2.25-7.08 2.34-0.23 2.34-0.23 5.23-0.2 1.54 0.01 1.54 0.01 3.12 0.02 1.08 0.02 2.16 0.04 3.27 0.06 1.09 0 2.18 0.01 3.3 0.02 2.69 0.03 5.39 0.06 8.08 0.1 0-0.66-0.01-1.32-0.01-2-0.05-6.84-0.08-13.7-0.1-20.5-0.01-2.56-0.02-5.12-0.04-7.68-0.03-3.66-0.04-7.33-0.05-11-0.01-1.15-0.02-2.3-0.03-3.48v-3.22c0-0.93-0.01-1.87-0.01-2.84 0.24-2.25 0.24-2.25 2.24-4.25 2.95-0.35 2.95-0.35 6.69-0.48 0.98-0.04 0.98-0.04 1.99-0.08 1.39-0.05 2.79-0.09 4.18-0.13 2.13-0.06 4.26-0.14 6.4-0.23 1.35-0.04 2.7-0.09 4.05-0.13 1.24-0.04 2.47-0.08 3.74-0.12 2.95 0.17 2.95 0.17 4.95 2.17z"/>
    <path transform="translate(1512,75)" d="m0 0v54c7.92 0.33 15.8 0.66 24 1 1 1 1 1 1.11 4.23 0 1.44 0 2.87-0.01 4.31 0 0.75-0.01 1.5-0.01 2.28 0 2.41-0.01 4.83-0.03 7.24 0 1.64-0.01 3.27-0.01 4.9-0.01 4.02-0.03 8.03-0.05 12-0.69 0.03-1.38 0.05-2.1 0.08-3.11 0.11-6.22 0.23-9.34 0.36-1.09 0.04-2.17 0.08-3.3 0.12-1.03 0.04-2.07 0.08-3.13 0.12-0.96 0.04-1.92 0.08-2.91 0.11-2.19-0.03-2.19-0.03-3.22 1.21-0.1 1.5-0.14 3-0.14 4.5-0.01 0.97-0.01 1.95-0.02 2.95v3.26c-0.01 1.13-0.01 2.25-0.02 3.42-0.01 3.75-0.02 7.5-0.02 11.2-0.01 2.6-0.01 5.2-0.02 7.8-0.01 4.76-0.02 9.53-0.02 14.3 0 7-0.02 14-0.05 21-0.02 6.07-0.03 12.1-0.03 18.2-0.01 2.58-0.01 5.15-0.03 7.73-0.01 3.62-0.01 7.23-0.01 10.8-0.01 1.06-0.01 2.12-0.02 3.22 0.04 8.45 1.17 16.3 7.38 22.5 3.74 2.63 7.81 4.23 12 6 1.81 1.81 1.13 4.58 1.13 7.01 0 1.23 0.01 2.47 0.01 3.74-0.01 1.3-0.01 2.6-0.02 3.94 0.01 1.28 0.01 2.56 0.02 3.88 0 1.24-0.01 2.48-0.01 3.75v3.44c-0.13 3.16-0.54 6.14-1.13 9.24-16.7-2.25-32-8.89-43-22-1.96-2.89-3.51-5.85-5-9-0.37-0.71-0.74-1.42-1.12-2.14-4.84-9.82-5.18-20.6-5.2-31.3-0.01-1.18-0.02-2.36-0.03-3.58-0.03-3.86-0.05-7.73-0.06-11.6-0.02-2.7-0.04-5.39-0.06-8.09-0.05-6.34-0.09-12.7-0.12-19-0.04-7.22-0.09-14.4-0.14-21.7-0.1-14.8-0.19-29.7-0.27-44.6-0.66-0.03-1.31-0.05-1.99-0.08-2.96-0.11-5.92-0.23-8.89-0.36-1.03-0.04-2.06-0.08-3.12-0.12-0.99-0.04-1.98-0.08-2.99-0.12-0.91-0.04-1.82-0.08-2.76-0.11-2.25-0.21-2.25-0.21-4.25-1.21-0.05-4.52-0.09-9.04-0.11-13.6-0.01-1.54-0.02-3.08-0.04-4.62-0.03-2.21-0.04-4.42-0.05-6.62-0.01-0.69-0.02-1.38-0.03-2.09 0-1.71 0.11-3.41 0.23-5.11 2-2 2-2 4.34-2.23 0.95 0.01 1.9 0.02 2.89 0.03 1.54 0.01 1.54 0.01 3.12 0.02 1.08 0.02 2.16 0.04 3.27 0.06 1.09 0 2.18 0.01 3.3 0.02 2.69 0.03 5.39 0.06 8.08 0.1 0-0.66-0.01-1.32-0.01-2-0.05-6.84-0.08-13.7-0.1-20.5-0.01-2.56-0.02-5.12-0.04-7.68-0.03-3.66-0.04-7.33-0.05-11-0.01-1.15-0.02-2.3-0.03-3.48v-3.22c0-0.93-0.01-1.87-0.01-2.84 0.24-2.25 0.24-2.25 2.24-4.25 2.95-0.33 2.95-0.33 6.69-0.45 0.66-0.02 1.31-0.04 1.99-0.07 1.39-0.04 2.79-0.08 4.18-0.11 2.13-0.06 4.26-0.13 6.4-0.2 10.4-0.31 10.4-0.31 12.7 0.83z"/>
    <path transform="translate(1356 130)" d="m0 0c1.21 0.02 1.21 0.02 2.44 0.03 6.05 0.12 12 0.53 18.1 1.22l2 9c4.86 0.08 9.44-0.04 14.2-0.69 11.8-1.09 23 3.47 32.8 9.69 3.16 2.72 5.62 5.59 8 9 0.49 0.69 0.98 1.37 1.48 2.08 7.65 12.1 7.22 27.1 6.52 40.9-1.68 1.68-3.73 1.13-5.97 1.14-0.69 0-1.38-0.01-2.09-0.01s-1.42 0-2.14 0.01c-1.5 0-3-0.01-4.49-0.01-2.3 0-4.6 0-6.9 0.01-1.45 0-2.9-0.01-4.35-0.01-1.03 0.01-1.03 0.01-2.09 0.01-4.86-0.03-4.86-0.03-5.97-1.14-0.18-1.51-0.3-3.03-0.39-4.55-0.07-0.93-0.14-1.85-0.21-2.81-0.14-1.96-0.27-3.91-0.39-5.87-0.36-5.59-0.36-5.59-2.97-10.4-4.3-2.91-8.97-2.87-14-2.38-2.97 0.58-5.58 1.16-8 3-4 6.76-3.43 13.9-3.42 21.5 0 1.47-0.01 2.95-0.02 4.42-0.03 3.98-0.03 7.96-0.03 12-0.01 4.17-0.03 8.34-0.05 12.5-0.04 7.9-0.07 15.8-0.08 23.7-0.04 14.2-0.1 28.3-0.16 42.5-0.02 4.97-0.04 9.94-0.05 14.9 0 3.08-0.01 6.17-0.03 9.26v4.29c-0.01 1.95-0.01 3.91-0.02 5.86 0 1.09-0.01 2.19-0.01 3.31-0.11 2.45-0.42 4.49-1.13 6.82-4.54 0.02-9.08 0.04-13.6 0.05-1.54 0.01-3.09 0.02-4.63 0.03-2.22 0.01-4.44 0.01-6.65 0.02-1.04 0.01-1.04 0.01-2.11 0.01-1.66 0-3.33-0.05-4.99-0.11-1.83-1.83-1.13-4.77-1.13-7.23v-2c-0.01-2.25-0.01-4.5 0-6.75 0-1.63-0.01-3.25-0.01-4.88 0-4.5 0-8.99 0.01-13.5 0-2.83 0.01-5.66 0.01-8.5 0.02-13.8 0.06-27.7 0.11-41.5 0.01-3.79 0.02-7.57 0.04-11.4 0.05-14.8 0.11-29.7 0.21-44.5 0.01-1.34 0.02-2.68 0.02-4.02 0.01-0.66 0.01-1.32 0.02-2.01 0.03-4.68 0.05-9.37 0.07-14.1 0.02-6.36 0.06-12.7 0.11-19.1 0.02-2.37 0.03-4.73 0.04-7.1 0.01-3.24 0.04-6.48 0.07-9.73 0-0.95-0.01-1.91-0.01-2.9 0.02-0.87 0.03-1.74 0.04-2.63 0.01-0.76 0.01-1.51 0.02-2.29 1.21-6.2 6.74-5.36 11.9-5.22z"/>
    <path transform="translate(55.1 283)" d="m0 0c1.36-0 1.36-0 2.74-0.01 1.02 0.01 2.03 0.01 3.08 0.02 1.59 0 1.59 0 3.21 0.01 10.7 0.05 21.3 0.26 32 0.49 1.97 0.04 3.95 0.08 5.92 0.12 2.81 0.06 5.61 0.12 8.41 0.19 0.86 0.01 1.71 0.03 2.59 0.05 5.92 0.15 5.92 0.15 7.04 1.26 0.1 2.43 0.13 4.84 0.12 7.27 0.01 1.14 0.01 1.14 0.01 2.31v7.6 5.29 11.1c-0.01 4.72-0.01 9.45 0 14.2v11 5.22c0.01 9.4-0.12 18.7-1.13 28-6.96 0.03-13.9 0.05-20.9 0.06-2.36 0-4.72 0.01-7.07 0.02-22.6 0.08-22.6 0.08-33.2-0.52-0.7-0.04-1.4-0.08-2.12-0.12-4.65-0.31-4.65-0.31-5.78-1.44-0.11-2.82-0.14-5.62-0.13-8.45-0.01-0.88-0.01-1.77-0.01-2.68v-8.84-6.11-12.8c0.01-5.49 0.01-11 0-16.5v-12.6-6.08c0-2.82 0-5.65 0.01-8.48-0.01-0.84-0.01-1.69-0.01-2.56 0.03-7.01 0.03-7.01 5.19-7.02z" fill="#FEFEFE"/>
    <path transform="translate(60.3 71.7)" d="m0 0h3.88c1.4 0.02 2.79 0.03 4.18 0.05 1.43 0 2.86 0.01 4.29 0.01 3.75 0.01 7.51 0.04 11.3 0.07 3.84 0.04 7.67 0.05 11.5 0.06 7.51 0.04 15 0.09 22.6 0.15 1.7 3.4 1.25 7.27 1.32 11 0.03 1.37 0.03 1.37 0.06 2.77 0.07 2.97 0.13 5.94 0.18 8.91 0.05 2.02 0.09 4.04 0.13 6.05 0.28 13.4 0.45 26.8 0.31 40.3-2.81 0.63-2.81 0.63-6 1l-3-2v2h-2v-2c-0.72-0.01-1.45-0.02-2.19-0.03-6.82-0.1-13.6-0.2-20.4-0.31-3.51-0.05-7.01-0.11-10.5-0.16-4.03-0.05-8.05-0.12-12.1-0.18-1.27-0.02-2.53-0.04-3.83-0.05-1.16-0.02-2.33-0.04-3.52-0.06-1.03-0.02-2.06-0.04-3.12-0.05-2.32-0.16-2.32-0.16-3.32-1.16-0.11-1.95-0.16-3.9-0.18-5.85-0.01-1.25-0.02-2.5-0.03-3.79-0.01-1.38-0.02-2.76-0.03-4.13 0-0.69-0.01-1.38-0.01-2.09-0.02-3.66-0.03-7.31-0.04-11-0.02-3.78-0.05-7.55-0.09-11.3-0.03-2.9-0.03-5.8-0.04-8.71 0-1.39-0.01-2.78-0.03-4.18-0.03-1.94-0.02-3.89-0.02-5.84 0-1.11-0.01-2.22-0.02-3.36 0.49-2.75 0.49-2.75 2.12-4.61 3.06-1.47 5.31-1.5 8.7-1.48z" fill="#FEFEFE"/>
    <path transform="translate(1152 164)" d="m0 0c1.16 0.07 1.16 0.07 2.35 0.14 0.81 0.06 1.61 0.13 2.44 0.19 0.8 0.05 1.59 0.09 2.41 0.14 4.52 0.3 8.59 0.81 12.8 2.67 2.23 3.35 2.25 4.4 2.24 8.3 0 1.1 0.01 2.2 0.01 3.33-0.01 1.2-0.02 2.41-0.02 3.65v3.84c0 3.48-0.01 6.96-0.03 10.4-0.01 3.64-0.01 7.27-0.01 10.9-0.01 6.88-0.03 13.8-0.05 20.6-0.02 7.84-0.03 15.7-0.04 23.5-0.02 16.1-0.05 32.2-0.1 48.4-4.15 1.75-7.89 2.56-12.4 3.13-1.27 0.17-2.54 0.33-3.84 0.51-9.65 0.93-9.65 0.93-12.8-0.64-0.07-17.7-0.12-35.4-0.15-53-0.02-8.21-0.04-16.4-0.08-24.6-0.03-7.16-0.05-14.3-0.05-21.5-0.01-3.79-0.01-7.58-0.04-11.4-0.02-3.57-0.02-7.13-0.02-10.7 0-1.93-0.02-3.87-0.03-5.8 0-1.15 0.01-2.3 0.01-3.48 0-1-0.01-2-0.01-3.03 0.37-2.5 0.37-2.5 1.77-4.32 2.05-1.5 3.11-1.48 5.62-1.32z" fill="#FEFEFE"/>
    <path transform="translate(681,166)" d="m0 0c5.17 3.99 7.61 9 8.43 15.4 0.03 1.19 0.05 2.37 0.08 3.6 0.02 0.67 0.04 1.35 0.06 2.04 0.05 2.27 0.09 4.54 0.12 6.81 0.03 1.64 0.06 3.27 0.1 4.9 0.29 15.8 0.31 31.6 0.33 47.5 0.01 1.24 0.01 2.48 0.01 3.75 0.02 11.6 0.02 23.2-0.45 34.9-0.03 1.11-0.03 1.11-0.07 2.25-0.31 6.28-2.07 10.8-5.67 15.9-3.62 2.54-5.93 2.96-10.3 2.74-4.99-1.29-8.53-4.67-11.6-8.68-2.46-5.55-2.29-10.9-2.27-16.8-0.01-1.08-0.01-2.17-0.02-3.28-0.01-3.57-0.01-7.14-0.01-10.7 0-2.49-0.01-4.97-0.01-7.46-0.01-5.2-0.01-10.4-0.01-15.6 0.01-6.67-0.01-13.3-0.03-20-0.01-5.13-0.02-10.3-0.01-15.4 0-2.45-0.01-4.91-0.02-7.37-0.01-3.44 0-6.88 0.01-10.3-0.01-1.01-0.02-2.02-0.03-3.07 0.05-6.34 0.6-11.6 4.83-16.6 5.72-4.37 9.38-6.22 16.6-4.29z" fill="#FEFEFE"/>
    <path transform="translate(130,219)" d="m0 0c9.57 3.42 19 7.17 28.3 11.2 1.01 0.43 2.02 0.85 3.06 1.29 0.94 0.42 1.89 0.83 2.87 1.25 0.84 0.37 1.69 0.73 2.56 1.11 2.18 1.15 3.58 2.33 5.2 4.16-2.17 8.27-5.41 15.9-8.77 23.8-2.25 5.26-4.4 10.6-6.54 15.9-3.21 7.94-6.63 15.8-10.1 23.6-5.83 13-10.8 26.4-15.6 39.8h-2c-1.68-3.36-1.14-7.15-1.13-10.8 0-0.88 0-1.76-0.01-2.66 0-1.86 0.01-3.72 0.01-5.58 0-2.84 0-5.69-0.01-8.54 0-1.8 0.01-3.6 0.01-5.41 0-0.85-0.01-1.7-0.01-2.58 0.01-3.38 0.07-6.17 1.14-9.39 0.99-0.5 0.99-0.5 2-1-0.49-0.35-0.97-0.71-1.48-1.07-2.26-2.86-1.89-5.14-1.89-8.76-0.01-0.69-0.01-1.38-0.01-2.09-0.01-2.28 0-4.55 0.02-6.83v-4.75c0-3.32 0.01-6.63 0.02-9.95 0.03-4.26 0.03-8.51 0.02-12.8 0-3.27 0-6.53 0.01-9.8 0.01-1.57 0.01-3.14 0.01-4.71 0-2.19 0.01-4.38 0.03-6.57 0-1.25 0-2.5 0.01-3.78 0.26-2.92 0.26-2.92 2.26-4.92z" fill="#FEFEFE"/>
    <path transform="translate(1286 165)" d="m0 0c2.78 2.21 3.42 3.33 4.25 6.79 0.22 3.11 0.19 6.2 0.13 9.31-0.01 0.84-0.02 1.67-0.03 2.53-0.02 2.06-0.06 4.11-0.1 6.16-3.97 0.02-7.93 0.04-11.9 0.05-1.36 0.01-2.71 0.02-4.06 0.02-1.94 0.02-3.87 0.02-5.81 0.03-1.76 0-1.76 0-3.54 0.01-2.69-0.11-2.69-0.11-3.69-1.11-0.59-7.08-0.39-16.1 4-22 5.72-4.21 14.3-4.63 20.8-1.79z" fill="#FEFEFE"/>
    <path transform="translate(91,345)" d="m0 0c3.19 2.66 4.58 4.19 5.51 8.19 0.32 4.21-0.18 7.11-2.95 10.4-3.29 2.8-6.2 3.19-10.4 2.91-3.15-0.7-4.94-2.15-7.12-4.47-1.73-3.45-1.36-7.22-1-11 1.31-3.23 2.25-4.53 5.19-6.38 3.81-0.84 7.13-0.87 10.8 0.38z"/>
    <path transform="translate(64,280)" d="m0 0c1.48-0.03 2.96-0.05 4.44-0.06 0.82-0.01 1.64-0.03 2.49-0.04 2.07 0.1 2.07 0.1 3.07 1.1 3.06 0.05 6.09 0.04 9.14-0.01 1.9-0.02 3.79-0.03 5.68-0.05 3-0.03 5.99-0.07 8.99-0.11 2.88-0.04 5.76-0.07 8.65-0.09 0.89-0.02 1.79-0.04 2.71-0.05 6.25-0.03 6.25-0.03 9.43 1.83 0.46 0.49 0.92 0.98 1.4 1.48-47.6 0.21-47.6 0.21-68-1v-1h12v-2z" fill="#434341"/>
    <path transform="translate(51,139)" d="m0 0c7.14-0.03 14.3-0.04 21.4-0.05 2.42-0.01 4.85-0.02 7.27-0.03 3.49-0.01 6.99-0.01 10.5-0.02 1.08 0 2.16-0.01 3.27-0.01 5.3 0 10.4 0.18 15.6 1.11 0.5 1.49 0.5 1.49 1 3-19.1-0.33-38.3-0.66-58-1l-1-3z" fill="#41413F"/>
    <path transform="translate(58,211)" d="m0 0c7.78-0.05 15.6-0.09 23.3-0.11 2.65-0.01 5.3-0.02 7.95-0.04 3.8-0.03 7.6-0.04 11.4-0.05 1.18-0.01 2.37-0.02 3.59-0.03h3.34c0.97 0 1.94-0.01 2.94-0.01 2.45 0.24 2.45 0.24 5.45 2.24-3.9 0.72-7.58 1.12-11.6 1.11h-3.21c-1.13 0-2.26-0.01-3.42-0.01-1.75 0-1.75 0-3.54-0.01-3.72 0-7.44-0.01-11.2-0.03-2.52 0-5.05-0.01-7.57-0.01-6.19-0.01-12.4-0.03-18.6-0.05l1-3z" fill="#3F3F3D"/>
    <path transform="translate(219,184)" d="m0 0c3.61 2.92 6.98 5.84 9.94 9.44 2.07 2.5 4.21 4.64 6.68 6.75 3.73 3.18 7.26 6.51 10.8 9.93 0.52 0.51 1.04 1.01 1.58 1.53 2.99 2.96 4.56 5.46 6.04 9.35 0.99 0.33 1.98 0.66 3 1 1.69 3.06 1.69 3.06 3 6-1.94-0.75-1.94-0.75-4-2-0.75-2.12-0.75-2.12-1-4h-2v-2c-0.54-0.21-1.07-0.42-1.62-0.64-3.29-1.88-5.75-4.48-8.38-7.17-0.52-0.52-1.04-1.05-1.58-1.58-2.33-2.36-4.49-4.7-6.56-7.3-2.22-2.76-4.71-4.78-7.47-6.98-0.46-0.44-0.92-0.88-1.39-1.33v-2c-0.58-0.21-1.16-0.41-1.75-0.62-3.06-1.88-4.41-4.35-6.25-7.38l1-1z" fill="#383836"/>
    <path transform="translate(147,148)" d="m0 0c33.9 10.9 33.9 10.9 49.3 19.2 1.67 0.96 1.67 0.96 3.68 0.81 0.5 1.49 0.5 1.49 1 3-5.81-1.8-11.4-3.96-17-6.31-6.55-2.75-13.2-5.23-19.9-7.55-6.44-2.23-12.8-4.65-19.1-7.14l2-2z" fill="#424240"/>
    <path transform="translate(181,246)" d="m0 0c3.81 3.11 7.26 6.18 10.4 9.94 2.95 3.48 6.15 6.37 9.63 9.32 2.96 2.67 5.41 5.65 7.93 8.74l-1 2c-4.25-3.32-7.71-6.85-11.2-11-2.77-3.17-5.77-6.11-8.79-9.05-2.94-2.87-5.63-5.64-8-9l1-1z" fill="#090909"/>
    <path transform="translate(131,219)" d="m0 0c10.6 1.12 20.5 5.25 30 10v2l4 1c-3.73 1.24-4.54 0.6-8.04-0.98-0.99-0.45-1.99-0.89-3.01-1.34-1.03-0.47-2.07-0.94-3.14-1.43-2.03-0.91-4.07-1.82-6.1-2.73-1.46-0.66-1.46-0.66-2.94-1.32-3.55-1.54-7.13-2.89-10.8-4.2v-1z" fill="#3C3C3A"/>
    <path transform="translate(219,184)" d="m0 0c7.67 5.97 7.67 5.97 9 11h-2v-2c-0.58-0.21-1.16-0.41-1.75-0.62-3.06-1.88-4.41-4.35-6.25-7.38l1-1z" fill="#020201"/>
  </symbol>
</svg>